<?xml version="1.0" encoding="utf-8"?>
<!-- Generator: Adobe Illustrator 17.0.0, SVG Export Plug-In . SVG Version: 6.00 Build 0)  -->
<!DOCTYPE svg PUBLIC "-//W3C//DTD SVG 1.1//EN" "http://www.w3.org/Graphics/SVG/1.1/DTD/svg11.dtd">
<svg version="1.1" id="Layer_1" xmlns="http://www.w3.org/2000/svg" xmlns:xlink="http://www.w3.org/1999/xlink" x="0px" y="0px"
	 width="349.798px" height="68.804px" viewBox="0 0 349.798 68.804" enable-background="new 0 0 349.798 68.804"
	 xml:space="preserve">
<path fill="#FFFFFF" d="M57.506,65.003c-4.3,1.601-12.701,3.801-21.701,3.801c-11.4,0-20.001-2.9-26.401-9.001
	c-6-5.7-9.501-14.601-9.401-24.801C0.002,13.701,15.203,0,37.505,0c8.3,0,14.801,1.7,17.901,3.2l-2.7,9.9
	c-3.7-1.6-8.2-2.9-15.301-2.9c-14.401,0-24.501,8.5-24.501,24.201c0,15.301,9.4,24.401,23.401,24.401c4.4,0,7.701-0.6,9.301-1.399
	v-16.8H33.704v-9.701h23.801v34.101H57.506z"/>
<path fill="#EAEAEA" d="M70.101,0.7h12.201v31.002h0.3c1.6-2.6,3.3-5,4.9-7.3L105.103,0.7h15.201L97.103,29.402l24.702,38.702
	h-14.401L88.302,37.202l-6,7.2v23.702H70.101V0.7z"/>
<path fill="#EAEAEA" d="M140.6,0.7v67.404h-12.301V0.7H140.6z"/>
<path fill="#EAEAEA" d="M154.699,1.6c3.9-0.8,11-1.4,17.901-1.4c9.101,0,14.701,1.1,19.301,4.3c4.2,2.5,7,6.9,7,12.601
	c0,6.2-3.9,11.9-11.201,14.601v0.2c7.101,1.8,13.601,7.4,13.601,16.701c0,6-2.6,10.7-6.5,13.9c-4.801,4.2-12.701,6.301-25.002,6.301
	c-6.8,0-12-0.5-15.101-0.9V1.6H154.699z M166.9,28.202h6.3c8.5,0,13.301-4,13.301-9.701c0-6.3-4.8-9.201-12.601-9.201
	c-3.601,0-5.701,0.2-7,0.5V28.202z M166.9,59.204c1.6,0.2,3.7,0.3,6.5,0.3c7.9,0,14.901-3,14.901-11.301c0-7.8-6.801-11-15.301-11
	h-6.1V59.204z"/>
<path fill="#EAEAEA" d="M212.298,1.6c4.6-0.8,11.5-1.4,18.6-1.4c9.701,0,16.302,1.6,20.802,5.4c3.7,3.1,5.8,7.801,5.8,13.501
	c0,8.701-5.9,14.601-12.2,16.901v0.3c4.8,1.8,7.7,6.5,9.4,13c2.101,8.401,3.9,16.201,5.301,18.801H247.3c-1-2-2.601-7.5-4.5-15.901
	c-1.9-8.8-5.101-11.6-12.101-11.8h-6.201v27.702h-12.2V1.6z M224.497,31.402h7.301c8.301,0,13.501-4.4,13.501-11.101
	c0-7.4-5.2-10.801-13.201-10.801c-3.9,0-6.4,0.3-7.601,0.6V31.402z"/>
<path fill="#EAEAEA" d="M281.496,0.7v67.404h-12.301V0.7H281.496z"/>
<path fill="#EAEAEA" d="M309.096,49.003l-5.801,19.101h-12.7l21.6-67.404h15.701l21.901,67.404h-13.201l-6.1-19.101H309.096z
	 M328.397,39.702l-5.3-16.601c-1.301-4.1-2.4-8.7-3.4-12.601h-0.2c-1,3.9-2,8.601-3.2,12.601l-5.2,16.601H328.397z"/>
</svg>
