<?xml version="1.0" encoding="utf-8"?>
<!-- Generator: Adobe Illustrator 17.0.0, SVG Export Plug-In . SVG Version: 6.00 Build 0)  -->
<!DOCTYPE svg PUBLIC "-//W3C//DTD SVG 1.1//EN" "http://www.w3.org/Graphics/SVG/1.1/DTD/svg11.dtd">
<svg version="1.1" id="Layer_1" xmlns="http://www.w3.org/2000/svg" xmlns:xlink="http://www.w3.org/1999/xlink" x="0px" y="0px"
	 width="512.509px" height="104.571px" viewBox="0 0 512.509 104.571" enable-background="new 0 0 512.509 104.571"
	 xml:space="preserve">
<g>
	<path fill="#231E20" d="M28.491,75.155l-8.933,29.416H0L33.265,0.77h24.179l33.728,103.801H70.843l-9.394-29.416H28.491z
		 M58.214,60.833l-8.162-25.565c-2.002-6.314-3.696-13.398-5.236-19.405h-0.308c-1.54,6.006-3.08,13.245-4.928,19.405l-8.008,25.565
		H58.214z"/>
	<path fill="#231E20" d="M105.642,0.77h59.909v15.555h-40.966V44.97h38.194v15.555h-38.194v44.046h-18.943V0.77z"/>
	<path fill="#231E20" d="M184.026,2.156C191.111,0.924,201.737,0,212.671,0c14.939,0,25.104,2.464,32.034,8.316
		c5.698,4.774,8.932,12.013,8.932,20.791c0,13.398-9.086,22.485-18.789,26.027v0.462c7.392,2.772,11.858,10.01,14.477,20.021
		c3.234,12.937,6.006,24.949,8.163,28.953h-19.559c-1.54-3.08-4.004-11.55-6.93-24.487c-2.926-13.552-7.854-17.865-18.635-18.173
		h-9.549v42.66h-18.789V2.156z M202.815,48.05h11.243c12.783,0,20.791-6.776,20.791-17.095c0-11.396-8.008-16.633-20.329-16.633
		c-6.006,0-9.856,0.462-11.705,0.924V48.05z"/>
	<path fill="#EC1851" d="M329.711,58.523h-39.118v30.493h43.738v15.555h-62.682V0.77h60.371v15.555h-41.428v26.797h39.118V58.523z"
		/>
	<path fill="#EC1851" d="M409.021,58.523h-39.118v30.493h43.738v15.555H350.96V0.77h60.371v15.555h-41.429v26.797h39.118V58.523z"/>
	<path fill="#231E20" d="M430.27,104.571V0.77h21.561l26.798,44.508c6.93,11.55,12.937,23.563,17.711,34.805h0.308
		c-1.232-13.86-1.694-27.259-1.694-43.122V0.77h17.557v103.801H492.95l-27.105-45.586c-6.622-11.396-13.553-24.179-18.635-35.884
		l-0.462,0.154c0.771,13.399,0.924,27.105,0.924,44.2v37.116H430.27z"/>
</g>
</svg>
